<?xml version="1.0" encoding="UTF-8"?>
<svg version="1.1" xmlns="http://www.w3.org/2000/svg" width="170" height="135">
<path d="M0 0 C3.36128605 2.5697574 6.54156429 5.18227556 9.484375 8.2265625 C8.08687452 11.38491357 6.43239266 13.54929075 3.984375 15.9765625 C3.3759375 16.59015625 2.7675 17.20375 2.140625 17.8359375 C0.484375 19.2265625 0.484375 19.2265625 -1.515625 19.2265625 C-1.515625 19.8865625 -1.515625 20.5465625 -1.515625 21.2265625 C-3.203125 22.9140625 -3.203125 22.9140625 -5.515625 24.2265625 C-9.73712943 24.2265625 -11.72619695 22.28997617 -14.7734375 19.56640625 C-22.02253472 13.9914279 -30.6297602 12.54795899 -39.515625 13.2265625 C-48.33211394 14.71417441 -56.02875692 18.84380779 -61.62890625 25.8828125 C-67.90974551 35.34958471 -69.69351566 43.90909761 -68.515625 55.2265625 C-65.85709675 64.94787609 -61.27984536 72.21843658 -52.515625 77.2265625 C-52.185625 78.2165625 -51.855625 79.2065625 -51.515625 80.2265625 C-56.65788783 81.5349489 -61.75981902 81.25454874 -67.01367188 81.09960938 C-72.19092566 81.02067367 -76.53568288 81.79166392 -81.515625 83.2265625 C-82.46705238 81.92412308 -83.40089714 80.60883938 -84.328125 79.2890625 C-85.11123047 78.19271484 -85.11123047 78.19271484 -85.91015625 77.07421875 C-88.03980205 73.29681781 -89.25865527 69.36288955 -90.515625 65.2265625 C-91.19665283 65.24227295 -91.87768066 65.2579834 -92.5793457 65.27416992 C-95.66218781 65.33649472 -98.74489744 65.37554508 -101.828125 65.4140625 C-102.89998047 65.43919922 -103.97183594 65.46433594 -105.07617188 65.49023438 C-106.61821289 65.50473633 -106.61821289 65.50473633 -108.19140625 65.51953125 C-109.6132019 65.54309692 -109.6132019 65.54309692 -111.0637207 65.56713867 C-113.515625 65.2265625 -113.515625 65.2265625 -115.36010742 63.93481445 C-116.515625 62.2265625 -116.515625 62.2265625 -116.328125 58.6015625 C-116.06 57.4878125 -115.791875 56.3740625 -115.515625 55.2265625 C-112.67026775 53.80388388 -110.15343948 54.00684381 -106.9765625 53.91015625 C-105.02363281 53.84731445 -105.02363281 53.84731445 -103.03125 53.78320312 C-101.65104455 53.74338951 -100.27083617 53.70367728 -98.890625 53.6640625 C-97.50259085 53.62086843 -96.11456972 53.57725385 -94.7265625 53.53320312 C-91.32302244 53.4268425 -87.91940722 53.32481536 -84.515625 53.2265625 C-84.515625 52.2365625 -84.515625 51.2465625 -84.515625 50.2265625 C-85.20022797 50.21847565 -85.88483093 50.21038879 -86.59017944 50.20205688 C-93.69507906 50.11621243 -100.79969317 50.01671835 -107.90429688 49.90917969 C-110.55821958 49.87082069 -113.21219551 49.83598024 -115.86621094 49.8046875 C-119.6740221 49.75918714 -123.48146458 49.70116801 -127.2890625 49.640625 C-128.48179779 49.62907379 -129.67453308 49.61752258 -130.90341187 49.60562134 C-132.00440216 49.58575165 -133.10539246 49.56588196 -134.23974609 49.54541016 C-135.6986879 49.52542465 -135.6986879 49.52542465 -137.18710327 49.5050354 C-139.515625 49.2265625 -139.515625 49.2265625 -141.515625 47.2265625 C-141.828125 43.7265625 -141.828125 43.7265625 -141.515625 40.2265625 C-138.16945608 37.99578322 -137.11968541 37.98132213 -133.21801758 37.99951172 C-132.13712357 37.99966278 -131.05622955 37.99981384 -129.94258118 37.99996948 C-128.19403084 38.01545334 -128.19403084 38.01545334 -126.41015625 38.03125 C-125.21581467 38.0340799 -124.02147308 38.03690979 -122.79093933 38.03982544 C-118.96990003 38.05103573 -115.14909366 38.07614213 -111.328125 38.1015625 C-108.74023776 38.11159119 -106.15234684 38.12071723 -103.56445312 38.12890625 C-97.21476404 38.15097785 -90.86521116 38.1844639 -84.515625 38.2265625 C-84.845625 37.2365625 -85.175625 36.2465625 -85.515625 35.2265625 C-86.17159668 35.20674316 -86.82756836 35.18692383 -87.50341797 35.16650391 C-90.46623569 35.07143743 -93.42833032 34.96168498 -96.390625 34.8515625 C-97.42316406 34.820625 -98.45570312 34.7896875 -99.51953125 34.7578125 C-100.50566406 34.71914063 -101.49179688 34.68046875 -102.5078125 34.640625 C-103.41901855 34.6092041 -104.33022461 34.5777832 -105.26904297 34.54541016 C-107.515625 34.2265625 -107.515625 34.2265625 -109.515625 32.2265625 C-109.765625 28.7265625 -109.765625 28.7265625 -109.515625 25.2265625 C-107.515625 23.2265625 -107.515625 23.2265625 -105.36083984 22.99951172 C-104.49152832 23.00998535 -103.6222168 23.02045898 -102.7265625 23.03125 C-101.78554687 23.03769531 -100.84453125 23.04414062 -99.875 23.05078125 C-98.39773437 23.07591797 -98.39773437 23.07591797 -96.890625 23.1015625 C-95.89804688 23.11058594 -94.90546875 23.11960938 -93.8828125 23.12890625 C-91.42684366 23.15252134 -88.97135332 23.18545451 -86.515625 23.2265625 C-86.25652344 22.33582031 -85.99742188 21.44507812 -85.73046875 20.52734375 C-81.64528741 9.42773529 -70.47258921 0.36906323 -60.078125 -4.6484375 C-40.32558977 -12.68855395 -17.8954831 -12.61575982 0 0 Z " fill="#2D6F9E" transform="translate(142.515625,12.7734375)"/>
<path d="M0 0 C2.67529255 1.02290598 5.096888 2.05847903 7.55517578 3.54223633 C12.11888913 5.47348597 16.08573562 5.4772512 20.9921875 5.51171875 C21.93812775 5.52966995 22.88406799 5.54762115 23.8586731 5.56611633 C26.86407079 5.62006637 29.86931104 5.65406604 32.875 5.6875 C34.91929267 5.72068657 36.9635646 5.75517747 39.0078125 5.79101562 C44.00509448 5.87578415 49.00233099 5.94266839 54 6 C54.32991081 12.039158 53.13454177 17.09055572 51.48046875 22.87890625 C51.22123123 23.80920151 50.96199371 24.73949677 50.69490051 25.69798279 C50.14690174 27.65656812 49.59446268 29.61391592 49.0378418 31.57006836 C48.19009691 34.55336124 47.3586699 37.54085084 46.52929688 40.52929688 C45.99315147 42.43777107 45.45607324 44.3459835 44.91796875 46.25390625 C44.54746651 47.58537437 44.54746651 47.58537437 44.16947937 48.94374084 C41.94227154 56.71824602 39.70502648 62.25060624 33 67 C32.01 67 31.02 67 30 67 C28.65576661 65.34211215 27.32381517 63.67423683 26 62 C23.38142305 60.21037181 23.38142305 60.21037181 21 59 C21.57352893 55.12867972 23.48704352 52.91827204 26 50 C25.13375 50.845625 24.2675 51.69125 23.375 52.5625 C11.22121644 62.90301746 -3.45619907 66.17109408 -19 66.5 C-19.90886963 66.53085693 -20.81773926 66.56171387 -21.75415039 66.59350586 C-26.35287876 66.59393425 -28.31578215 66.56283887 -31.97265625 63.5546875 C-32.64167969 62.71164063 -33.31070313 61.86859375 -34 61 C-38.91406591 58.22796282 -42.52708884 59.32556968 -47.75 60.75 C-50.62525929 62.03757568 -50.62525929 62.03757568 -52 67 C-56.62 67 -61.24 67 -66 67 C-67.17731232 62.29075071 -66.25270461 60.05662822 -64 56 C-60.29812904 50.44719355 -56.45224857 47.79627479 -50 46 C-44.20916978 45.42534027 -38.44036762 45.38952027 -32.625 45.375 C-14.03017702 45.24284616 -0.19031725 44.22190135 14.06640625 30.98828125 C16.0531022 29.14627032 16.0531022 29.14627032 17 27 C15.55367187 27.84884766 15.55367187 27.84884766 14.078125 28.71484375 C12.80223301 29.45598689 11.52618301 30.19685807 10.25 30.9375 C9.29867187 31.49727539 9.29867187 31.49727539 8.328125 32.06835938 C5.16334916 33.89799541 2.57834553 35.10541362 -1 36 C-1 33.03 -1 30.06 -1 27 C-10.55650317 26.79833874 -19.63914824 26.73560389 -29 29 C-28.27770766 24.99299724 -26.52066358 23.15512644 -23.3515625 20.5859375 C-15.94866868 15.59328818 -7.76368568 12.48537045 1 11 C0.84402344 10.28972656 0.68804687 9.57945313 0.52734375 8.84765625 C0.33269531 7.92855469 0.13804688 7.00945313 -0.0625 6.0625 C-0.25972656 5.14597656 -0.45695312 4.22945312 -0.66015625 3.28515625 C-0.82837891 2.15400391 -0.82837891 2.15400391 -1 1 C-0.67 0.67 -0.34 0.34 0 0 Z " fill="#ED8E44" transform="translate(116,49)"/>
<path d="M0 0 C3.36128605 2.5697574 6.54156429 5.18227556 9.484375 8.2265625 C8.08687452 11.38491357 6.43239266 13.54929075 3.984375 15.9765625 C3.3759375 16.59015625 2.7675 17.20375 2.140625 17.8359375 C0.484375 19.2265625 0.484375 19.2265625 -1.515625 19.2265625 C-1.515625 19.8865625 -1.515625 20.5465625 -1.515625 21.2265625 C-3.203125 22.9140625 -3.203125 22.9140625 -5.515625 24.2265625 C-9.73712943 24.2265625 -11.72619695 22.28997617 -14.7734375 19.56640625 C-24.83683668 11.82706562 -36.63494838 12.69357197 -48.515625 14.2265625 C-49.46433288 7.36667477 -49.46433288 1.08645023 -48.515625 -5.7734375 C-63.99982965 -2.01769424 -75.18067377 6.77800605 -83.515625 20.2265625 C-84.19092683 21.55554319 -84.85905674 22.88822758 -85.515625 24.2265625 C-86.14654053 24.25161865 -86.77745605 24.2766748 -87.42749023 24.30249023 C-90.26959325 24.41810387 -93.11133583 24.54098566 -95.953125 24.6640625 C-96.94634766 24.70337891 -97.93957031 24.74269531 -98.96289062 24.78320312 C-100.37924805 24.84604492 -100.37924805 24.84604492 -101.82421875 24.91015625 C-103.13604126 24.96514282 -103.13604126 24.96514282 -104.47436523 25.02124023 C-106.5083652 25.00837316 -106.5083652 25.00837316 -107.515625 26.2265625 C-107.68229167 28.7265625 -107.68229167 28.7265625 -107.515625 31.2265625 C-105.87336783 32.86881967 -103.93798658 32.41275833 -101.67578125 32.47265625 C-100.69544922 32.50552734 -99.71511719 32.53839844 -98.70507812 32.57226562 C-96.62445672 32.6333457 -94.54372103 32.69065219 -92.46289062 32.74414062 C-91.48126953 32.77830078 -90.49964844 32.81246094 -89.48828125 32.84765625 C-88.13101929 32.88524048 -88.13101929 32.88524048 -86.74633789 32.92358398 C-84.515625 33.2265625 -84.515625 33.2265625 -82.515625 35.2265625 C-83.05133929 38.76227679 -83.05133929 38.76227679 -84.515625 40.2265625 C-86.23336667 40.34963561 -87.95605239 40.40442808 -89.67797852 40.43188477 C-91.32957726 40.4618026 -91.32957726 40.4618026 -93.01454163 40.49232483 C-94.81138649 40.51739357 -94.81138649 40.51739357 -96.64453125 40.54296875 C-97.86389877 40.56374985 -99.0832663 40.58453094 -100.33958435 40.60594177 C-104.25237145 40.67156678 -108.16522817 40.73038222 -112.078125 40.7890625 C-114.72331462 40.83223541 -117.36849709 40.87584928 -120.01367188 40.91992188 C-126.51424836 41.0272613 -133.01489479 41.12900317 -139.515625 41.2265625 C-139.558346 42.89268155 -139.55626332 44.56039135 -139.515625 46.2265625 C-137.82677248 47.91541502 -135.69973854 47.37742039 -133.38500977 47.40014648 C-131.7430941 47.42038124 -131.7430941 47.42038124 -130.06800842 47.44102478 C-128.28057472 47.45668236 -128.28057472 47.45668236 -126.45703125 47.47265625 C-123.96288704 47.50558863 -121.4687465 47.53880038 -118.97460938 47.57226562 C-115.01980072 47.61976566 -111.06500763 47.66419244 -107.11010742 47.70336914 C-103.30892216 47.74293767 -99.50804751 47.79451599 -95.70703125 47.84765625 C-93.9226339 47.86027748 -93.9226339 47.86027748 -92.10218811 47.87315369 C-91.00442551 47.88979568 -89.9066629 47.90643768 -88.77563477 47.92358398 C-87.32121727 47.93904518 -87.32121727 47.93904518 -85.8374176 47.95481873 C-83.515625 48.2265625 -83.515625 48.2265625 -81.515625 50.2265625 C-82.05133929 53.76227679 -82.05133929 53.76227679 -83.515625 55.2265625 C-85.64807982 55.37295183 -87.78507837 55.45402062 -89.921875 55.5078125 C-91.22253906 55.54519531 -92.52320313 55.58257812 -93.86328125 55.62109375 C-95.94382109 55.67476922 -98.02439882 55.7267819 -100.10498047 55.77880859 C-102.10654871 55.83044669 -104.10796724 55.88778938 -106.109375 55.9453125 C-107.31271484 55.97560547 -108.51605469 56.00589844 -109.75585938 56.03710938 C-112.42476687 55.9166981 -112.42476687 55.9166981 -113.515625 57.2265625 C-113.68229167 59.7265625 -113.68229167 59.7265625 -113.515625 62.2265625 C-111.83261831 63.90956919 -109.69553773 63.45465327 -107.38671875 63.54296875 C-105.83500977 63.60581055 -105.83500977 63.60581055 -104.25195312 63.66992188 C-103.16333984 63.70923828 -102.07472656 63.74855469 -100.953125 63.7890625 C-99.86064453 63.83224609 -98.76816406 63.87542969 -97.64257812 63.91992188 C-94.93372936 64.02638318 -92.22478508 64.12839766 -89.515625 64.2265625 C-88.48528618 66.34696992 -87.46659646 68.47304158 -86.453125 70.6015625 C-85.88464844 71.78492187 -85.31617188 72.96828125 -84.73046875 74.1875 C-84.32957031 75.19039063 -83.92867187 76.19328125 -83.515625 77.2265625 C-83.845625 77.8865625 -84.175625 78.5465625 -84.515625 79.2265625 C-85.52046704 77.27070925 -86.51936305 75.31180013 -87.515625 73.3515625 C-88.0725 72.26101562 -88.629375 71.17046875 -89.203125 70.046875 C-90.515625 67.2265625 -90.515625 67.2265625 -90.515625 65.2265625 C-91.19665283 65.24227295 -91.87768066 65.2579834 -92.5793457 65.27416992 C-95.66218781 65.33649472 -98.74489744 65.37554508 -101.828125 65.4140625 C-102.89998047 65.43919922 -103.97183594 65.46433594 -105.07617188 65.49023438 C-106.61821289 65.50473633 -106.61821289 65.50473633 -108.19140625 65.51953125 C-109.6132019 65.54309692 -109.6132019 65.54309692 -111.0637207 65.56713867 C-113.515625 65.2265625 -113.515625 65.2265625 -115.36010742 63.93481445 C-116.515625 62.2265625 -116.515625 62.2265625 -116.328125 58.6015625 C-116.06 57.4878125 -115.791875 56.3740625 -115.515625 55.2265625 C-112.67026775 53.80388388 -110.15343948 54.00684381 -106.9765625 53.91015625 C-105.02363281 53.84731445 -105.02363281 53.84731445 -103.03125 53.78320312 C-101.65104455 53.74338951 -100.27083617 53.70367728 -98.890625 53.6640625 C-97.50259085 53.62086843 -96.11456972 53.57725385 -94.7265625 53.53320312 C-91.32302244 53.4268425 -87.91940722 53.32481536 -84.515625 53.2265625 C-84.515625 52.2365625 -84.515625 51.2465625 -84.515625 50.2265625 C-85.20022797 50.21847565 -85.88483093 50.21038879 -86.59017944 50.20205688 C-93.69507906 50.11621243 -100.79969317 50.01671835 -107.90429688 49.90917969 C-110.55821958 49.87082069 -113.21219551 49.83598024 -115.86621094 49.8046875 C-119.6740221 49.75918714 -123.48146458 49.70116801 -127.2890625 49.640625 C-128.48179779 49.62907379 -129.67453308 49.61752258 -130.90341187 49.60562134 C-132.00440216 49.58575165 -133.10539246 49.56588196 -134.23974609 49.54541016 C-135.6986879 49.52542465 -135.6986879 49.52542465 -137.18710327 49.5050354 C-139.515625 49.2265625 -139.515625 49.2265625 -141.515625 47.2265625 C-141.828125 43.7265625 -141.828125 43.7265625 -141.515625 40.2265625 C-138.16945608 37.99578322 -137.11968541 37.98132213 -133.21801758 37.99951172 C-132.13712357 37.99966278 -131.05622955 37.99981384 -129.94258118 37.99996948 C-128.19403084 38.01545334 -128.19403084 38.01545334 -126.41015625 38.03125 C-125.21581467 38.0340799 -124.02147308 38.03690979 -122.79093933 38.03982544 C-118.96990003 38.05103573 -115.14909366 38.07614213 -111.328125 38.1015625 C-108.74023776 38.11159119 -106.15234684 38.12071723 -103.56445312 38.12890625 C-97.21476404 38.15097785 -90.86521116 38.1844639 -84.515625 38.2265625 C-84.845625 37.2365625 -85.175625 36.2465625 -85.515625 35.2265625 C-86.17159668 35.20674316 -86.82756836 35.18692383 -87.50341797 35.16650391 C-90.46623569 35.07143743 -93.42833032 34.96168498 -96.390625 34.8515625 C-97.42316406 34.820625 -98.45570312 34.7896875 -99.51953125 34.7578125 C-100.50566406 34.71914063 -101.49179688 34.68046875 -102.5078125 34.640625 C-103.41901855 34.6092041 -104.33022461 34.5777832 -105.26904297 34.54541016 C-107.515625 34.2265625 -107.515625 34.2265625 -109.515625 32.2265625 C-109.765625 28.7265625 -109.765625 28.7265625 -109.515625 25.2265625 C-107.515625 23.2265625 -107.515625 23.2265625 -105.36083984 22.99951172 C-104.49152832 23.00998535 -103.6222168 23.02045898 -102.7265625 23.03125 C-101.78554687 23.03769531 -100.84453125 23.04414062 -99.875 23.05078125 C-98.39773437 23.07591797 -98.39773437 23.07591797 -96.890625 23.1015625 C-95.89804688 23.11058594 -94.90546875 23.11960938 -93.8828125 23.12890625 C-91.42684366 23.15252134 -88.97135332 23.18545451 -86.515625 23.2265625 C-86.25652344 22.33582031 -85.99742188 21.44507812 -85.73046875 20.52734375 C-81.64528741 9.42773529 -70.47258921 0.36906323 -60.078125 -4.6484375 C-40.32558977 -12.68855395 -17.8954831 -12.61575982 0 0 Z " fill="#D0CDCE" transform="translate(142.515625,12.7734375)"/>
<path d="M0 0 C19.19367798 -0.57581034 34.04632317 2.09519096 49 15 C50.01232351 15.98752271 51.01709032 16.98319689 52 18 C50.60249952 21.15835107 48.94801766 23.32272825 46.5 25.75 C45.58734375 26.67039062 45.58734375 26.67039062 44.65625 27.609375 C43 29 43 29 41 29 C41 29.66 41 30.32 41 31 C39.3125 32.6875 39.3125 32.6875 37 34 C32.76215558 34 30.78687541 32.03032549 27.703125 29.3359375 C20.51987839 23.7013725 11.807225 22.95213243 3 22 C3 21.67 3 21.34 3 21 C6.63 20.67 10.26 20.34 14 20 C14 14.39 14 8.78 14 3 C14.99 3 15.98 3 17 3 C17 2.34 17 1.68 17 1 C11.39 1 5.78 1 0 1 C0 0.67 0 0.34 0 0 Z " fill="#F1995B" transform="translate(100,3)"/>
<path d="M0 0 C1.25668488 0.00212242 1.25668488 0.00212242 2.53875732 0.00428772 C5.20816657 0.00987428 7.8774912 0.02242431 10.546875 0.03515625 C12.35937379 0.04017299 14.17187389 0.04473559 15.984375 0.04882812 C20.42190748 0.05983931 24.85937691 0.0770947 29.296875 0.09765625 C28.306875 0.42765625 27.316875 0.75765625 26.296875 1.09765625 C26.54244141 2.13986328 26.54244141 2.13986328 26.79296875 3.203125 C27.33783496 6.33293785 27.39425983 9.23563708 27.359375 12.41015625 C27.35035156 13.47878906 27.34132812 14.54742187 27.33203125 15.6484375 C27.32042969 16.45667969 27.30882812 17.26492187 27.296875 18.09765625 C28.616875 18.42765625 29.936875 18.75765625 31.296875 19.09765625 C27.90149648 19.24340952 24.50692598 19.33187167 21.109375 19.41015625 C20.14966797 19.45205078 19.18996094 19.49394531 18.20117188 19.53710938 C10.99767558 19.66173734 10.99767558 19.66173734 7.2734375 16.6640625 C6.62117188 15.81714844 5.96890625 14.97023438 5.296875 14.09765625 C1.29680406 11.84120598 -1.2937144 11.9953036 -5.703125 13.09765625 C-8.47052835 13.86992798 -8.47052835 13.86992798 -10.703125 15.09765625 C-11.033125 16.08765625 -11.363125 17.07765625 -11.703125 18.09765625 C-14.46764533 19.47991641 -16.7492613 19.19291012 -19.828125 19.16015625 C-20.92382812 19.15113281 -22.01953125 19.14210938 -23.1484375 19.1328125 C-24.41300781 19.11541016 -24.41300781 19.11541016 -25.703125 19.09765625 C-26.03042664 13.49361357 -24.92782246 11.18235902 -21.48828125 6.9296875 C-15.3083145 0.58744592 -8.44270212 -0.05375947 0 0 Z " fill="#586F8B" transform="translate(76.703125,95.90234375)"/>
<path d="M0 0 C0.33 0.66 0.66 1.32 1 2 C0.67 2.66 0.34 3.32 0 4 C-0.25 7.5 -0.25 7.5 0 11 C0.66 11.66 1.32 12.32 2 13 C2.125 15.625 2.125 15.625 2 18 C1.34 18 0.68 18 0 18 C0 19.98 0 21.96 0 24 C-1.65 24.66 -3.3 25.32 -5 26 C-5 26.66 -5 27.32 -5 28 C-12.1963309 31.06459719 -18.16465389 32.61187085 -26 32 C-26.22114415 29.20880221 -26.42743301 26.4178788 -26.625 23.625 C-26.68945312 22.8309375 -26.75390625 22.036875 -26.8203125 21.21875 C-26.96058587 19.14971776 -26.98758237 17.07374464 -27 15 C-24.4494383 12.4494383 -22.41280228 12.17674728 -18.9375 11.25 C-11.39903473 9.02101857 -5.43998815 5.69340375 0 0 Z " fill="#B76F53" transform="translate(130,82)"/>
<path d="M0 0 C3.3 1.65 6.6 3.3 10 5 C10 5.99 10 6.98 10 8 C10.66 8 11.32 8 12 8 C12.955071 12.20231241 13.13633265 14.26141786 11 18 C11.495 18.99 11.495 18.99 12 20 C11.5625 22.125 11.5625 22.125 11 24 C11.99 24 12.98 24 14 24 C12.79634095 27.61097716 11.99957501 27.87109031 8.75 29.625 C7.98171875 30.05039063 7.2134375 30.47578125 6.421875 30.9140625 C3.94128071 32.02632897 1.67684803 32.5728434 -1 33 C-0.34 30.03 0.32 27.06 1 24 C-2.33338914 23.97282563 -5.66655279 23.95307686 -9 23.9375 C-9.93457031 23.92912109 -10.86914062 23.92074219 -11.83203125 23.91210938 C-17.32274401 23.89291108 -22.56866481 24.1865807 -28 25 C-24.75184646 20.17825912 -21.22993277 18.2150968 -16.125 15.8125 C-15.43019531 15.47025391 -14.73539063 15.12800781 -14.01953125 14.77539062 C-8.72900793 12.20983553 -3.9756694 10 2 10 C1.34 6.7 0.68 3.4 0 0 Z " fill="#B9755A" transform="translate(117,51)"/>
<path d="M0 0 C2.93423195 1.79646854 4.47205355 2.9441071 6 6 C6.51512617 10.09157355 6.94367269 14.23589546 4.953125 17.95703125 C2.64852308 20.74288828 0.68567303 22.76400578 -2.953125 23.2734375 C-7.24672199 23.46329043 -10.09582964 23.4342668 -13.5 20.625 C-17.13542732 16.80780131 -17.39236502 14.44157848 -17.359375 9.328125 C-16.75455722 5.40995764 -14.83123243 3.69641184 -12 1 C-8.30274625 -0.84862688 -4.03538558 -0.47587094 0 0 Z " fill="#EDAE88" transform="translate(139,110)"/>
<path d="M0 0 C3.57052209 1.93341549 5.69451966 4.08355899 7 8 C7.67195988 14.83159214 7.67195988 14.83159214 5.953125 17.8203125 C3.62232066 20.65840955 1.75549235 22.75423107 -1.953125 23.2734375 C-6.24672199 23.46329043 -9.09582964 23.4342668 -12.5 20.625 C-15.95201013 17.00038936 -16.29146975 15.04891246 -16.21875 10.03125 C-15.80661101 6.20424507 -13.86270018 3.96224251 -11.375 1.1875 C-7.62514976 -0.68742512 -4.09687683 -0.77259442 0 0 Z " fill="#2A5A86" transform="translate(80,110)"/>
<path d="M0 0 C1.14726563 -0.02578125 2.29453125 -0.0515625 3.4765625 -0.078125 C4.43304688 0.03015625 5.38953125 0.1384375 6.375 0.25 C9.05427341 4.26891012 8.53101248 6.49161923 8.375 11.25 C3.425 11.25 -1.525 11.25 -6.625 11.25 C-7.285 13.23 -7.945 15.21 -8.625 17.25 C-12.15179099 19.60119399 -13.65379485 19.46443452 -17.8125 19.375 C-18.89917969 19.35695313 -19.98585937 19.33890625 -21.10546875 19.3203125 C-22.35263672 19.28550781 -22.35263672 19.28550781 -23.625 19.25 C-23.95230164 13.64595732 -22.84969746 11.33470277 -19.41015625 7.08203125 C-13.88172521 1.40843354 -7.66942294 0.1038748 0 0 Z " fill="#296E9E" transform="translate(74.625,95.75)"/>
<path d="M0 0 C1.90685651 0.95682124 3.77425288 1.99151071 5.6328125 3.0390625 C4.3128125 3.3690625 2.9928125 3.6990625 1.6328125 4.0390625 C1.46492124 6.47648381 1.29845117 8.91398796 1.1328125 11.3515625 C1.08511719 12.04185547 1.03742188 12.73214844 0.98828125 13.44335938 C0.79401761 16.31568609 0.6328125 19.15920038 0.6328125 22.0390625 C0.6328125 22.6990625 0.6328125 23.3590625 0.6328125 24.0390625 C-2.33520843 23.58936236 -4.59069896 22.92968455 -7.3046875 21.6015625 C-12.92906309 19.0404629 -19.29436031 18.75499913 -25.3671875 18.0390625 C-25.3671875 17.7090625 -25.3671875 17.3790625 -25.3671875 17.0390625 C-21.7371875 16.7090625 -18.1071875 16.3790625 -14.3671875 16.0390625 C-14.3671875 10.4290625 -14.3671875 4.8190625 -14.3671875 -0.9609375 C-9.50761245 -2.58079585 -4.73222685 -1.92100298 0 0 Z " fill="#BF785B" transform="translate(128.3671875,6.9609375)"/>
<path d="M0 0 C-0.01160156 1.12019531 -0.02320312 2.24039062 -0.03515625 3.39453125 C-0.04453622 4.86718583 -0.0536362 6.33984222 -0.0625 7.8125 C-0.07087891 8.55048828 -0.07925781 9.28847656 -0.08789062 10.04882812 C-0.10259828 13.29922068 -0.03531702 15.89404895 1 19 C1.99 19.33 2.98 19.66 4 20 C3.33613281 20.31453125 2.67226562 20.6290625 1.98828125 20.953125 C-6.99086366 25.30506093 -11.73634337 29.5347378 -17 38 C-17.33 37.34 -17.66 36.68 -18 36 C-18.66 35.67 -19.32 35.34 -20 35 C-18.515 34.505 -18.515 34.505 -17 34 C-17.33 32.35 -17.66 30.7 -18 29 C-17.34 28.67 -16.68 28.34 -16 28 C-15.34 28.33 -14.68 28.66 -14 29 C-14.061875 27.8553125 -14.061875 27.8553125 -14.125 26.6875 C-14 24 -14 24 -12 21 C-11.80541386 18.43317988 -11.720902 16.00054851 -11.75 13.4375 C-11.74226563 12.75236328 -11.73453125 12.06722656 -11.7265625 11.36132812 C-11.62834698 7.22492724 -11.62834698 7.22492724 -14 4 C-12.60984189 3.32157861 -11.2125473 2.657771 -9.8125 2 C-9.03519531 1.62875 -8.25789063 1.2575 -7.45703125 0.875 C-4.81117142 -0.06724579 -2.78649115 -0.1583796 0 0 Z " fill="#606F88" transform="translate(94,7)"/>
<path d="M0 0 C-0.99 0.66 -1.98 1.32 -3 2 C-3.38394667 4.77262255 -3.60342248 7.34323528 -3.6875 10.125 C-3.72166016 10.87910156 -3.75582031 11.63320312 -3.79101562 12.41015625 C-3.87354278 14.27291201 -3.93844711 16.13643326 -4 18 C-2.02 18 -0.04 18 2 18 C2 17.34 2 16.68 2 16 C2.99 16.33 3.98 16.66 5 17 C-1.12414468 22.38924732 -8.28189975 22.27952878 -16 22 C-16.22114415 19.20880221 -16.42743301 16.4178788 -16.625 13.625 C-16.68945312 12.8309375 -16.75390625 12.036875 -16.8203125 11.21875 C-16.96058587 9.14971776 -16.98758237 7.07374464 -17 5 C-14.39104541 2.39104541 -12.01733462 1.89026736 -8.5 0.8125 C-7.3346875 0.44769531 -6.169375 0.08289063 -4.96875 -0.29296875 C-2 -1 -2 -1 0 0 Z " fill="#816F75" transform="translate(120,92)"/>
<path d="M0 0 C1.29349365 0.00523682 2.5869873 0.01047363 3.91967773 0.01586914 C4.9496714 0.01799156 4.9496714 0.01799156 6.00047302 0.02015686 C8.20144949 0.0257706 10.40232557 0.03832532 12.60327148 0.05102539 C14.09220231 0.05603863 15.58113473 0.06060184 17.07006836 0.06469727 C20.72700223 0.07574446 24.38387707 0.09301826 28.04077148 0.11352539 C27.71077148 2.75352539 27.38077148 5.39352539 27.04077148 8.11352539 C22.94738497 8.16291654 18.8541135 8.1992404 14.76049805 8.22338867 C13.36756367 8.23345417 11.97465046 8.24710773 10.58178711 8.2644043 C8.58122789 8.28862759 6.58051533 8.29893353 4.57983398 8.30883789 C3.37536621 8.31931152 2.17089844 8.32978516 0.92993164 8.34057617 C-1.95922852 8.11352539 -1.95922852 8.11352539 -3.95922852 6.11352539 C-4.14672852 3.55102539 -4.14672852 3.55102539 -3.95922852 1.11352539 C-2.95922852 0.11352539 -2.95922852 0.11352539 0 0 Z " fill="#EF862C" transform="translate(5.959228515625,52.886474609375)"/>
<path d="M0 0 C0.19561869 2.0825867 0.38119313 4.16611856 0.5625 6.25 C0.66691406 7.41015625 0.77132812 8.5703125 0.87890625 9.765625 C0.98198087 12.51871477 0.86213473 14.419982 0 17 C0 16.01 0 15.02 0 14 C-3.33331439 13.97062562 -6.66659483 13.95307666 -10 13.9375 C-10.93457031 13.92912109 -11.86914062 13.92074219 -12.83203125 13.91210938 C-18.32274401 13.89291108 -23.56866481 14.1865807 -29 15 C-25.75184646 10.17825912 -22.22993277 8.2150968 -17.125 5.8125 C-16.43019531 5.47025391 -15.73539063 5.12800781 -15.01953125 4.77539062 C-5.1720267 0 -5.1720267 0 0 0 Z " fill="#9D7870" transform="translate(118,61)"/>
<path d="M0 0 C2.55555556 6.33333333 2.55555556 6.33333333 1.23046875 10.30859375 C0.24796283 12.25624683 -0.86788154 14.1353343 -2 16 C-5.96 16 -9.92 16 -14 16 C-14 8.98075693 -12.57931164 6.90331954 -8 2 C-3.76056338 -1.25352113 -3.76056338 -1.25352113 0 0 Z " fill="#285A86" transform="translate(65,99)"/>
<path d="M0 0 C2.67529255 1.02290598 5.096888 2.05847903 7.55517578 3.54223633 C12.11888913 5.47348597 16.08573562 5.4772512 20.9921875 5.51171875 C21.93812775 5.52966995 22.88406799 5.54762115 23.8586731 5.56611633 C26.86407079 5.62006637 29.86931104 5.65406604 32.875 5.6875 C34.91929267 5.72068657 36.9635646 5.75517747 39.0078125 5.79101562 C44.00509448 5.87578415 49.00233099 5.94266839 54 6 C54 6.33 54 6.66 54 7 C47.88025582 7.0992969 41.76098648 7.17167096 35.640625 7.21972656 C33.56111475 7.23977159 31.48166037 7.26701513 29.40234375 7.30175781 C26.40350513 7.35058948 23.40541537 7.37304028 20.40625 7.390625 C19.48509399 7.41127014 18.56393799 7.43191528 17.61486816 7.45318604 C11.33307938 7.45534196 7.41937682 6.19632633 2 3 C2.33 5.97 2.66 8.94 3 12 C2.04480469 12.29132812 1.08960937 12.58265625 0.10546875 12.8828125 C-14.20291941 17.2214057 -14.20291941 17.2214057 -26 26 C-24.57107422 25.75636719 -24.57107422 25.75636719 -23.11328125 25.5078125 C-18.47142243 24.84619273 -13.86844122 24.85341226 -9.1875 24.875 C-7.90069336 24.86919922 -7.90069336 24.86919922 -6.58789062 24.86328125 C-5.76869141 24.86457031 -4.94949219 24.86585937 -4.10546875 24.8671875 C-3.36449951 24.86831543 -2.62353027 24.86944336 -1.86010742 24.87060547 C0 25 0 25 2 26 C1.67 28.64 1.34 31.28 1 34 C1.66 34.33 2.32 34.66 3 35 C1.02 35.495 1.02 35.495 -1 36 C-1 33.03 -1 30.06 -1 27 C-10.55650317 26.79833874 -19.63914824 26.73560389 -29 29 C-28.27770766 24.99299724 -26.52066358 23.15512644 -23.3515625 20.5859375 C-15.94866868 15.59328818 -7.76368568 12.48537045 1 11 C0.84402344 10.28972656 0.68804687 9.57945313 0.52734375 8.84765625 C0.23537109 7.46900391 0.23537109 7.46900391 -0.0625 6.0625 C-0.35833984 4.68771484 -0.35833984 4.68771484 -0.66015625 3.28515625 C-0.77230469 2.53105469 -0.88445312 1.77695312 -1 1 C-0.67 0.67 -0.34 0.34 0 0 Z " fill="#FAFBFC" transform="translate(116,49)"/>
<path d="M0 0 C5.61 0 11.22 0 17 0 C17 0.66 17 1.32 17 2 C16.01 2 15.02 2 14 2 C14.08378906 2.64066406 14.16757813 3.28132812 14.25390625 3.94140625 C14.87664605 9.23075314 15.02317185 13.77045499 14 19 C14.66 19.33 15.32 19.66 16 20 C9.375 20.25 9.375 20.25 6 18 C5.77892213 15.2114711 5.71892465 12.65346819 5.8125 9.875 C5.82603516 9.12089844 5.83957031 8.36679688 5.85351562 7.58984375 C5.88890015 5.72625873 5.94270833 3.86304022 6 2 C3.03 1.505 3.03 1.505 0 1 C0 0.67 0 0.34 0 0 Z " fill="#A27467" transform="translate(100,4)"/>
<path d="M0 0 C1.16257324 0.01047363 2.32514648 0.02094727 3.52294922 0.03173828 C5.40820312 0.04140625 5.40820312 0.04140625 7.33154297 0.05126953 C9.30960938 0.07640625 9.30960938 0.07640625 11.32763672 0.10205078 C12.66747393 0.11208096 14.00731823 0.12120674 15.34716797 0.12939453 C18.63250244 0.15303003 21.91748137 0.18597844 25.20263672 0.22705078 C25.20263672 0.55705078 25.20263672 0.88705078 25.20263672 1.22705078 C18.76763672 1.72205078 18.76763672 1.72205078 12.20263672 2.22705078 C11.54263672 3.87705078 10.88263672 5.52705078 10.20263672 7.22705078 C11.52263672 7.88705078 12.84263672 8.54705078 14.20263672 9.22705078 C11.41071467 9.28085656 8.61982262 9.32062747 5.82763672 9.35205078 C5.03357422 9.36880859 4.23951172 9.38556641 3.42138672 9.40283203 C1.34771656 9.42040551 -0.7261957 9.33040246 -2.79736328 9.22705078 C-4.79736328 7.22705078 -4.79736328 7.22705078 -5.04736328 4.72705078 C-4.67712717 1.02468968 -3.66277954 0.29729316 0 0 Z " fill="#767E8F" transform="translate(32.79736328125,67.77294921875)"/>
<path d="M0 0 C4.29 0 8.58 0 13 0 C13 0.33 13 0.66 13 1 C10.36 1.33 7.72 1.66 5 2 C5.28875 2.75925781 5.5775 3.51851563 5.875 4.30078125 C6.431875 5.79158203 6.431875 5.79158203 7 7.3125 C7.37125 8.29863281 7.7425 9.28476563 8.125 10.30078125 C9 13 9 13 9 16 C8.34 16 7.68 16 7 16 C7 16.66 7 17.32 7 18 C13.6 18 20.2 18 27 18 C27 18.33 27 18.66 27 19 C23.60462148 19.14575327 20.21005098 19.23421542 16.8125 19.3125 C15.85279297 19.35439453 14.89308594 19.39628906 13.90429688 19.43945312 C6.70080058 19.56408109 6.70080058 19.56408109 2.9765625 16.56640625 C2.32429688 15.71949219 1.67203125 14.87257813 1 14 C-3.00007094 11.74354973 -5.5905894 11.89764735 -10 13 C-11.68375165 13.62225605 -13.35767228 14.27544365 -15 15 C-14.3359375 13.05078125 -14.3359375 13.05078125 -13 11 C-10.5390625 10.35546875 -10.5390625 10.35546875 -7.625 10.1875 C-6.66851562 10.11917969 -5.71203125 10.05085938 -4.7265625 9.98046875 C-2 10 -2 10 2 11 C1.34 7.37 0.68 3.74 0 0 Z " fill="#5788AB" transform="translate(81,96)"/>
<path d="M0 0 C-0.15597656 1.26457031 -0.31195313 2.52914063 -0.47265625 3.83203125 C-0.66961904 5.49214622 -0.86621453 7.15230481 -1.0625 8.8125 C-1.2181543 10.06256836 -1.2181543 10.06256836 -1.37695312 11.33789062 C-1.47041016 12.14033203 -1.56386719 12.94277344 -1.66015625 13.76953125 C-1.79369507 14.87711792 -1.79369507 14.87711792 -1.92993164 16.00708008 C-2.12361979 18.21141782 -2.12361979 18.21141782 -1 21 C-0.34 19.68 0.32 18.36 1 17 C2.32 17.33 3.64 17.66 5 18 C5 17.34 5 16.68 5 16 C6.98 16 8.96 16 11 16 C9.03284195 17.96715805 7.67031902 18.72616213 5.1875 19.875 C-2.13044006 23.50100634 -5.74750722 28.16093945 -10 35 C-10.33 34.34 -10.66 33.68 -11 33 C-11.66 32.67 -12.32 32.34 -13 32 C-11.515 31.505 -11.515 31.505 -10 31 C-10.33 29.35 -10.66 27.7 -11 26 C-10.34 25.67 -9.68 25.34 -9 25 C-8.34 25.33 -7.68 25.66 -7 26 C-7.061875 24.8553125 -7.061875 24.8553125 -7.125 23.6875 C-7 21 -7 21 -5 18 C-4.80541386 15.43317988 -4.720902 13.00054851 -4.75 10.4375 C-4.74226563 9.75236328 -4.73453125 9.06722656 -4.7265625 8.36132812 C-4.62834698 4.22492724 -4.62834698 4.22492724 -7 1 C-3.375 -1.125 -3.375 -1.125 0 0 Z " fill="#4A769A" transform="translate(87,10)"/>
<path d="M0 0 C0 0.33 0 0.66 0 1 C-1.65 1 -3.3 1 -5 1 C-4.67 2.32 -4.34 3.64 -4 5 C-4.66 5 -5.32 5 -6 5 C-5.67 9.62 -5.34 14.24 -5 19 C-3.35 19.33 -1.7 19.66 0 20 C0 20.33 0 20.66 0 21 C-5.98654709 21.59865471 -5.98654709 21.59865471 -8.765625 19.95703125 C-12.32226725 17.0133055 -13.84642398 15.33099216 -14.375 10.75 C-13.88072704 5.80727042 -12.46171699 4.46171699 -9 1 C-6.04335481 -0.4783226 -3.25770263 -0.06032783 0 0 Z " fill="#C57752" transform="translate(137,111)"/>
<path d="M0 0 C7.75 0.8046875 7.75 0.8046875 10 2.5625 C10.33 3.036875 10.66 3.51125 11 4 C9.68 4 8.36 4 7 4 C6.83210874 6.43742131 6.66563867 8.87492546 6.5 11.3125 C6.45230469 12.00279297 6.40460938 12.69308594 6.35546875 13.40429688 C6.16120511 16.27662359 6 19.12013788 6 22 C5.67 22.66 5.34 23.32 5 24 C0.26266708 20.39664283 0.26266708 20.39664283 -0.41259766 16.80615234 C-0.49150634 14.25103812 -0.4362591 11.74074539 -0.3125 9.1875 C-0.28994141 8.30384766 -0.26738281 7.42019531 -0.24414062 6.50976562 C-0.18547428 4.3391109 -0.09579979 2.1693331 0 0 Z " fill="#DA743E" transform="translate(123,7)"/>
<path d="M0 0 C3.57052209 1.93341549 5.69451966 4.08355899 7 8 C7.67195988 14.83159214 7.67195988 14.83159214 5.953125 17.8203125 C3.62232066 20.65840955 1.75549235 22.75423107 -1.953125 23.2734375 C-6.24672199 23.46329043 -9.09582964 23.4342668 -12.5 20.625 C-15.95201013 17.00038936 -16.29146975 15.04891246 -16.21875 10.03125 C-15.80661101 6.20424507 -13.86270018 3.96224251 -11.375 1.1875 C-7.62514976 -0.68742512 -4.09687683 -0.77259442 0 0 Z M-14 6 C-15.76961098 9.53922195 -15.03393444 13.27526723 -14 17 C-12.21129829 19.6258382 -10.88810491 20.34201385 -8 22 C-4.47974191 22.47732313 -2.24278297 22.64143637 0.9375 21 C2.36037514 18.3216468 2.15630159 15.91390317 2.046875 12.9375 C1.99455228 10.77482766 2.19387207 9.01531983 3 7 C3.66 6.67 4.32 6.34 5 6 C1.71652369 2.79660848 0.06667119 1.190477 -4.5 0.375 C-9.11588456 1.1992651 -10.70966114 2.70966114 -14 6 Z " fill="#BEC7D1" transform="translate(80,110)"/>
<path d="M0 0 C2.29160319 -0.02692484 4.58329546 -0.04636124 6.875 -0.0625 C8.15117188 -0.07410156 9.42734375 -0.08570313 10.7421875 -0.09765625 C14 0 14 0 16 1 C15.67 2.98 15.34 4.96 15 7 C15.99 7.33 16.98 7.66 18 8 C11.73 8 5.46 8 -1 8 C-1 2 -1 2 0 0 Z " fill="#496C8F" transform="translate(34,53)"/>
<path d="M0 0 C-0.99 0.66 -1.98 1.32 -3 2 C-3.38394667 4.77262255 -3.60342248 7.34323528 -3.6875 10.125 C-3.72166016 10.87910156 -3.75582031 11.63320312 -3.79101562 12.41015625 C-3.87354278 14.27291201 -3.93844711 16.13643326 -4 18 C-2.02 18 -0.04 18 2 18 C2 17.34 2 16.68 2 16 C2.99 16.33 3.98 16.66 5 17 C0.06033192 21.34690791 -5.56685067 22.31381216 -12 22 C-11.01 21.67 -10.02 21.34 -9 21 C-9.01160156 19.95199219 -9.02320312 18.90398437 -9.03515625 17.82421875 C-9.04453655 16.44531428 -9.0536365 15.06640789 -9.0625 13.6875 C-9.07087891 12.99720703 -9.07925781 12.30691406 -9.08789062 11.59570312 C-9.10307906 8.4516975 -9.00193327 6.00579981 -8 3 C-8.99 2.67 -9.98 2.34 -11 2 C-9.54494642 1.47007308 -8.08581873 0.9513211 -6.625 0.4375 C-5.81289062 0.14746094 -5.00078125 -0.14257812 -4.1640625 -0.44140625 C-2 -1 -2 -1 0 0 Z " fill="#A1786F" transform="translate(120,92)"/>
<path d="M0 0 C-0.32552083 2.01822917 -0.65104167 4.03645833 -0.9765625 6.0546875 C-0.98429687 6.69664063 -0.99203125 7.33859375 -1 8 C-0.34 8.66 0.32 9.32 1 10 C-9.395 10.99 -9.395 10.99 -20 12 C-16.30029401 7.37536751 -14.46309021 5.81178431 -9.4375 3.1875 C-8.30183594 2.58292969 -7.16617188 1.97835937 -5.99609375 1.35546875 C-3 0 -3 0 0 0 Z " fill="#61748D" transform="translate(109,64)"/>
<path d="M0 0 C2.0625 2.1875 2.0625 2.1875 3 5 C2.33719617 7.43028072 1.7989028 9.2010972 0 11 C-6.24521739 11.4626087 -6.24521739 11.4626087 -8.9375 9.8125 C-10.38718434 7.33950907 -10.42317323 5.82115488 -10 3 C-7.66542166 -0.98251599 -4.22028721 -0.60289817 0 0 Z " fill="#DEBDAB" transform="translate(22,67)"/>
<path d="M0 0 C0.70125 -0.01675781 1.4025 -0.03351562 2.125 -0.05078125 C2.74375 0.06910156 3.3625 0.18898437 4 0.3125 C6.15502531 3.54503796 6.46856135 4.56400923 6 8.3125 C4.9375 10.125 4.9375 10.125 3 11.3125 C-0.5625 11.625 -0.5625 11.625 -4 11.3125 C-6 9.3125 -6 9.3125 -6.25 5.8125 C-5.90439766 0.97406727 -4.58809291 0.02530198 0 0 Z " fill="#C2C9D1" transform="translate(25,35.6875)"/>
<path d="M0 0 C6.02536998 -0.602537 6.02536998 -0.602537 8.80078125 1.11328125 C10.25599455 2.34621853 11.63479157 3.66808933 13 5 C12.01 5.495 12.01 5.495 11 6 C9.9682565 8.93300669 9.89209012 11.66212836 9.9375 14.75 C9.95103516 15.94882813 9.95103516 15.94882813 9.96484375 17.171875 C9.97644531 17.77515625 9.98804687 18.3784375 10 19 C9.01 19 8.02 19 7 19 C6.33333333 17.66666667 5.66666667 16.33333333 5 15 C4.608125 14.360625 4.21625 13.72125 3.8125 13.0625 C2.74393802 10.3499965 3.20070299 8.76120784 4 6 C4.33 5.34 4.66 4.68 5 4 C4.34 4 3.68 4 3 4 C3 3.34 3 2.68 3 2 C2.01 1.34 1.02 0.68 0 0 Z " fill="#3A6990" transform="translate(72,111)"/>
<path d="M0 0 C14.19 0 28.38 0 43 0 C42.33639824 6.63601756 41.80046144 11.4952559 39.9375 17.625 C39.57527344 18.83414063 39.21304688 20.04328125 38.83984375 21.2890625 C38.56269531 22.18367188 38.28554687 23.07828125 38 24 C37.67 24 37.34 24 37 24 C36.77848451 22.20991533 36.57317787 20.41781838 36.375 18.625 C36.25898438 17.62726563 36.14296875 16.62953125 36.0234375 15.6015625 C36.01183594 14.31378906 36.01183594 14.31378906 36 13 C36.66 12.34 37.32 11.68 38 11 C38.66 11.33 39.32 11.66 40 12 C40.66 8.37 41.32 4.74 42 1 C28.14 1 14.28 1 0 1 C0 0.67 0 0.34 0 0 Z " fill="#ECBE8F" transform="translate(127,56)"/>
<path d="M0 0 C2.31 0 4.62 0 7 0 C6.67 0.66 6.34 1.32 6 2 C5.95445531 3.58267815 5.96162744 5.16713172 6 6.75 C6.04490087 10.6227002 5.8012483 14.19407056 5 18 C5.66 18.33 6.32 18.66 7 19 C5.35 19.66 3.7 20.32 2 21 C1.05129212 14.14011227 1.05129212 7.85988773 2 1 C1.34 0.67 0.68 0.34 0 0 Z " fill="#717080" transform="translate(92,6)"/>
<path d="M0 0 C4.62 0 9.24 0 14 0 C13.67 2.64 13.34 5.28 13 8 C10.03 8 7.06 8 4 8 C3.896875 7.05125 3.79375 6.1025 3.6875 5.125 C3.31460705 1.70892499 3.31460705 1.70892499 0 0 Z " fill="#B57257" transform="translate(20,53)"/>
<path d="M0 0 C0.05398987 2.27057377 0.09278742 4.54151288 0.125 6.8125 C0.14820312 8.07707031 0.17140625 9.34164062 0.1953125 10.64453125 C0 14 0 14 -2 17 C-2.99 17 -3.98 17 -5 17 C-5 16.34 -5 15.68 -5 15 C-4.34 15 -3.68 15 -3 15 C-3.433125 13.86111328 -3.433125 13.86111328 -3.875 12.69921875 C-4.24625 11.70535156 -4.6175 10.71148437 -5 9.6875 C-5.37125 8.70136719 -5.7425 7.71523437 -6.125 6.69921875 C-7 4 -7 4 -7 1 C-4.53721199 -0.231394 -2.7204945 -0.07159196 0 0 Z " fill="#467298" transform="translate(93,97)"/>
<path d="M0 0 C2 1 2 1 2.6328125 2.84765625 C2.79523438 3.57855469 2.95765625 4.30945313 3.125 5.0625 C3.29257813 5.79597656 3.46015625 6.52945313 3.6328125 7.28515625 C3.75398438 7.85105469 3.87515625 8.41695312 4 9 C4.66 9 5.32 9 6 9 C6.33 8.34 6.66 7.68 7 7 C8.98 8.65 10.96 10.3 13 12 C12.67 12.66 12.34 13.32 12 14 C7.90692802 14.4093072 4.91470591 14.40309654 1.5 12.0625 C-1 9 -1 9 -1.1484375 6.6640625 C-0.89757843 4.39199603 -0.53246482 2.22183047 0 0 Z " fill="#315178" transform="translate(67,118)"/>
<path d="M0 0 C2.64 0 5.28 0 8 0 C7.01 0.33 6.02 0.66 5 1 C5.16371094 1.69480469 5.32742187 2.38960938 5.49609375 3.10546875 C6.04095996 6.2352816 6.09738483 9.13798083 6.0625 12.3125 C6.05347656 13.38113281 6.04445313 14.44976562 6.03515625 15.55078125 C6.02355469 16.35902344 6.01195313 17.16726562 6 18 C5.01 18 4.02 18 3 18 C1.73638028 12.01314152 0.67581523 6.08233706 0 0 Z " fill="#6F6E7E" transform="translate(98,96)"/>
<path d="M0 0 C1.22589844 0.15275391 1.22589844 0.15275391 2.4765625 0.30859375 C3.41628906 0.43427734 3.41628906 0.43427734 4.375 0.5625 C3.715 2.2125 3.055 3.8625 2.375 5.5625 C3.695 6.2225 5.015 6.8825 6.375 7.5625 C4.60492286 7.64364106 2.83377902 7.70175505 1.0625 7.75 C0.07636719 7.78480469 -0.90976562 7.81960937 -1.92578125 7.85546875 C-4.625 7.5625 -4.625 7.5625 -6.4921875 6.18359375 C-7.625 4.5625 -7.625 4.5625 -7.4375 2.4375 C-5.86947435 -1.18102073 -3.43268674 -0.44134544 0 0 Z " fill="#496A8D" transform="translate(40.625,69.4375)"/>
<path d="M0 0 C0.99 0 1.98 0 3 0 C3.08120751 2.89640118 3.14059421 5.79050912 3.1875 8.6875 C3.21263672 9.50412109 3.23777344 10.32074219 3.26367188 11.16210938 C3.32217012 15.97846486 3.07302376 19.03975154 0 23 C-2.27944443 19.41926355 -2.0896844 16.78252069 -1.6875 12.625 C-1.58824219 11.52414063 -1.48898438 10.42328125 -1.38671875 9.2890625 C-1.02000848 6.17017316 -0.54646847 3.09198397 0 0 Z " fill="#4F6F91" transform="translate(86,9)"/>
<path d="M0 0 C0.33 0.66 0.66 1.32 1 2 C0.34 2 -0.32 2 -1 2 C-1.33 2.66 -1.66 3.32 -2 4 C-5.96 3.67 -9.92 3.34 -14 3 C-14 3.66 -14 4.32 -14 5 C-13.34 5 -12.68 5 -12 5 C-12 5.66 -12 6.32 -12 7 C-10.68 7.66 -9.36 8.32 -8 9 C-8 9.33 -8 9.66 -8 10 C-11.63 9.67 -15.26 9.34 -19 9 C-18.34 7.35 -17.68 5.7 -17 4 C-19.97 3.505 -19.97 3.505 -23 3 C-23 2.67 -23 2.34 -23 2 C-22.40985107 1.97494385 -21.81970215 1.9498877 -21.21166992 1.92407227 C-18.53673186 1.80799948 -15.8621362 1.68532428 -13.1875 1.5625 C-12.25873047 1.52318359 -11.32996094 1.48386719 -10.37304688 1.44335938 C-9.48037109 1.40146484 -8.58769531 1.35957031 -7.66796875 1.31640625 C-6.84578857 1.27974854 -6.0236084 1.24309082 -5.17651367 1.20532227 C-2.82094822 1.06572228 -2.82094822 1.06572228 0 0 Z " fill="#2F648E" transform="translate(61,67)"/>
<path d="M0 0 C1.65 0 3.3 0 5 0 C4.01 0.33 3.02 0.66 2 1 C2.13894148 4.10451549 2.287343 7.20850835 2.4375 10.3125 C2.47681641 11.19357422 2.51613281 12.07464844 2.55664062 12.98242188 C2.61948242 14.25375977 2.61948242 14.25375977 2.68359375 15.55078125 C2.72025146 16.33106689 2.75690918 17.11135254 2.79467773 17.9152832 C2.94125263 20.19329101 2.94125263 20.19329101 4 23 C4.99 23.33 5.98 23.66 7 24 C6.34 24.33 5.68 24.66 5 25 C2.9765625 24.29296875 2.9765625 24.29296875 0.625 23.1875 C-0.14585938 22.83042969 -0.91671875 22.47335938 -1.7109375 22.10546875 C-3.81686605 21.08844182 -5.91209933 20.05348413 -8 19 C-5.36 19.33 -2.72 19.66 0 20 C0 13.4 0 6.8 0 0 Z " fill="#D99877" transform="translate(121,6)"/>
<path d="M0 0 C0.66 0.33 1.32 0.66 2 1 C1.67 1.66 1.34 2.32 1 3 C0.92883618 5.37402501 0.91590915 7.75000677 0.9375 10.125 C0.94652344 11.40632813 0.95554687 12.68765625 0.96484375 14.0078125 C0.97644531 14.99523437 0.98804687 15.98265625 1 17 C-2.33098122 14.25194049 -3.86534577 12.83784855 -4.5625 8.5 C-3.92501775 4.53344376 -2.76383547 2.85020533 0 0 Z " fill="#B26F55" transform="translate(127,113)"/>
<path d="M0 0 C0.78375 0.04125 1.5675 0.0825 2.375 0.125 C2.045 2.435 1.715 4.745 1.375 7.125 C6.985 7.455 12.595 7.785 18.375 8.125 C18.375 8.455 18.375 8.785 18.375 9.125 C14.91673658 9.18289006 11.45859707 9.21855821 8 9.25 C7.01515625 9.26675781 6.0303125 9.28351562 5.015625 9.30078125 C4.07460938 9.30722656 3.13359375 9.31367187 2.1640625 9.3203125 C0.86009521 9.33602295 0.86009521 9.33602295 -0.47021484 9.35205078 C-2.625 9.125 -2.625 9.125 -4.625 7.125 C-4.875 4.625 -4.875 4.625 -4.625 2.125 C-2.625 0.125 -2.625 0.125 0 0 Z " fill="#447BA1" transform="translate(38.625,36.875)"/>
<path d="M0 0 C0.556875 0.185625 1.11375 0.37125 1.6875 0.5625 C3.96004572 1.15197989 3.96004572 1.15197989 6.0390625 0.53515625 C10.25950525 -0.22764145 14.40809879 -0.14434921 18.6875 -0.125 C19.55439453 -0.12886719 20.42128906 -0.13273437 21.31445312 -0.13671875 C22.14267578 -0.13542969 22.97089844 -0.13414063 23.82421875 -0.1328125 C24.57791748 -0.13168457 25.33161621 -0.13055664 26.1081543 -0.12939453 C28 0 28 0 30 1 C29.67 3.64 29.34 6.28 29 9 C29.66 9.33 30.32 9.66 31 10 C29.68 10.33 28.36 10.66 27 11 C27 8.03 27 5.06 27 2 C17.44349683 1.79833874 8.36085176 1.73560389 -1 4 C-0.67 2.68 -0.34 1.36 0 0 Z " fill="#E7E6E5" transform="translate(88,74)"/>
<path d="M0 0 C1.4606285 2.64738916 2 3.89448334 2 7 C1.34 7 0.68 7 0 7 C0 7.66 0 8.32 0 9 C6.6 9 13.2 9 20 9 C20 9.33 20 9.66 20 10 C16.60462148 10.14575327 13.21005098 10.23421542 9.8125 10.3125 C8.37293945 10.3753418 8.37293945 10.3753418 6.90429688 10.43945312 C-0.26731967 10.56352954 -0.26731967 10.56352954 -4.11328125 7.60546875 C-6 5 -6 5 -7 3 C-6.401875 2.87625 -5.80375 2.7525 -5.1875 2.625 C-2.73768652 2.04524015 -2.73768652 2.04524015 0 0 Z " fill="#95AEC2" transform="translate(88,105)"/>
<path d="M0 0 C1.32 0 2.64 0 4 0 C4.33 2.97 4.66 5.94 5 9 C3.68 9.33 2.36 9.66 1 10 C1 12.64 1 15.28 1 18 C0.34 18 -0.32 18 -1 18 C-1.02707139 15.75006641 -1.04642829 13.50003905 -1.0625 11.25 C-1.07410156 9.99703125 -1.08570313 8.7440625 -1.09765625 7.453125 C-1.02021027 4.71463499 -0.82780815 2.58119707 0 0 Z " fill="#DC753D" transform="translate(132,112)"/>
<path d="M0 0 C0.33 0.66 0.66 1.32 1 2 C0.67 2.66 0.34 3.32 0 4 C-0.25 7.5 -0.25 7.5 0 11 C0.66 11.66 1.32 12.32 2 13 C2.125 15.625 2.125 15.625 2 18 C1.34 18 0.68 18 0 18 C0 19.98 0 21.96 0 24 C-0.99 23.67 -1.98 23.34 -3 23 C-3.08706892 19.72933434 -3.14041241 16.45896635 -3.1875 13.1875 C-3.21263672 12.25873047 -3.23777344 11.32996094 -3.26367188 10.37304688 C-3.27333984 9.48037109 -3.28300781 8.58769531 -3.29296875 7.66796875 C-3.3086792 6.84578857 -3.32438965 6.0236084 -3.34057617 5.17651367 C-2.92566921 2.52497566 -2.04470249 1.66736408 0 0 Z " fill="#CE7347" transform="translate(130,82)"/>
<path d="M0 0 C1.98 0 3.96 0 6 0 C7.74511312 3.49022625 6.99183865 7.7381104 6.87304688 11.58984375 C6.8431621 13.39347804 6.91527805 15.19810879 7 17 C7.66 17.66 8.32 18.32 9 19 C7.35 19 5.7 19 4 19 C2.83153414 14.13738437 3.04963384 9.61020466 3.2578125 4.64453125 C3.17273438 3.77183594 3.08765625 2.89914063 3 2 C2.01 1.34 1.02 0.68 0 0 Z " fill="#8C6F6E" transform="translate(100,5)"/>
<path d="M0 0 C2.31 0.33 4.62 0.66 7 1 C6.67 3.31 6.34 5.62 6 8 C3.69 8 1.38 8 -1 8 C-1.125 2.25 -1.125 2.25 0 0 Z " fill="#746E7B" transform="translate(34,53)"/>
<path d="M0 0 C1.47968324 0.14049518 2.95874516 0.28754826 4.4375 0.4375 C5.67306641 0.55931641 5.67306641 0.55931641 6.93359375 0.68359375 C9 1 9 1 10 2 C10 3.98 10 5.96 10 8 C6.04 8 2.08 8 -2 8 C-2 7.67 -2 7.34 -2 7 C-0.02 6.67 1.96 6.34 4 6 C4 5.01 4 4.02 4 3 C4.33 2.34 4.66 1.68 5 1 C3.35 1 1.7 1 0 1 C0 0.67 0 0.34 0 0 Z " fill="#D87540" transform="translate(14,53)"/>
<path d="M0 0 C2.31 0 4.62 0 7 0 C7.05397335 2.4377963 7.09365616 4.87439685 7.125 7.3125 C7.15013672 8.34793945 7.15013672 8.34793945 7.17578125 9.40429688 C7.21217794 13.17135396 7.14378864 14.78431704 5 18 C3 16 3 16 2.91015625 12.8125 C3.01172295 10.27072811 3.11588995 7.72905879 3.22265625 5.1875 C3.14917969 4.135625 3.07570313 3.08375 3 2 C2.01 1.34 1.02 0.68 0 0 Z " fill="#8E716F" transform="translate(105,95)"/>
<path d="M0 0 C3.465 1.485 3.465 1.485 7 3 C6.484375 3.4125 5.96875 3.825 5.4375 4.25 C4.7259375 5.11625 4.7259375 5.11625 4 6 C4.3185177 8.10820797 4.3185177 8.10820797 5 10 C4.67 10.33 4.34 10.66 4 11 C3.63239269 13.32817964 3.29758419 15.6618385 3 18 C2.34 17.67 1.68 17.34 1 17 C1.01740234 15.91332031 1.01740234 15.91332031 1.03515625 14.8046875 C1.08231311 9.75216677 1.07377564 4.96621233 0 0 Z " fill="#A77565" transform="translate(117,51)"/>
<path d="M0 0 C1.32 0.33 2.64 0.66 4 1 C4.125 6.75 4.125 6.75 3 9 C3.99 9.33 4.98 9.66 6 10 C3.36 9.67 0.72 9.34 -2 9 C-1.34 6.03 -0.68 3.06 0 0 Z " fill="#806F76" transform="translate(109,64)"/>
<path d="M0 0 C2.31 0 4.62 0 7 0 C7.33 1.32 7.66 2.64 8 4 C7.34 4 6.68 4 6 4 C5.855625 4.61875 5.71125 5.2375 5.5625 5.875 C5 8 5 8 4 10 C3.34 10 2.68 10 2 10 C2 7.36 2 4.72 2 2 C1.34 2 0.68 2 0 2 C0 1.34 0 0.68 0 0 Z " fill="#DB7038" transform="translate(127,57)"/>
<path d="M0 0 C0 1.65 0 3.3 0 5 C-3.63 5.66 -7.26 6.32 -11 7 C-5.65789474 0 -5.65789474 0 0 0 Z " fill="#4A7B9E" transform="translate(100,69)"/>
<path d="M0 0 C3.63 0.33 7.26 0.66 11 1 C10.67 2.32 10.34 3.64 10 5 C10.66 5.66 11.32 6.32 12 7 C5.375 7.25 5.375 7.25 2 5 C2.99 5 3.98 5 5 5 C5 3.68 5 2.36 5 1 C3.35 1 1.7 1 0 1 C0 0.67 0 0.34 0 0 Z " fill="#EA7934" transform="translate(8,53)"/>
<path d="M0 0 C0.33 0 0.66 0 1 0 C1.08086147 1.79093191 1.13912702 3.58289628 1.1875 5.375 C1.22230469 6.37273437 1.25710937 7.37046875 1.29296875 8.3984375 C1.19628906 9.25695312 1.09960938 10.11546875 1 11 C0.01 11.66 -0.98 12.32 -2 13 C-2.66 12.67 -3.32 12.34 -4 12 C-3.53439347 7.25081338 -2.83067342 3.89217595 0 0 Z " fill="#EF8F4A" transform="translate(143,117)"/>
<path d="M0 0 C2.0625 0.4375 2.0625 0.4375 4 1 C4.33 3.31 4.66 5.62 5 8 C3.33388095 8.042721 1.66617115 8.04063832 0 8 C-1 7 -1 7 -1.125 4 C-1 1 -1 1 0 0 Z " fill="#D47A48" transform="translate(15,69)"/>
<path d="M0 0 C1.31878578 0.76002917 2.6298684 1.53343653 3.9375 2.3125 C4.66839844 2.74175781 5.39929688 3.17101562 6.15234375 3.61328125 C8 5 8 5 9 8 C4.65507229 9.13896163 0.61379215 8.93100471 -3.8125 8.5625 C-4.50537109 8.51029297 -5.19824219 8.45808594 -5.91210938 8.40429688 C-7.60854437 8.27560181 -9.30434863 8.13863816 -11 8 C-11 7.67 -11 7.34 -11 7 C-3.08 6.505 -3.08 6.505 5 6 C3.35 4.68 1.7 3.36 0 2 C0 1.34 0 0.68 0 0 Z " fill="#BAC9D5" transform="translate(82,85)"/>
<path d="M0 0 C3.7910119 1.44950455 7.3874638 3.15172566 11 5 C10.67 5.66 10.34 6.32 10 7 C7.36 5.68 4.72 4.36 2 3 C2.33 5.97 2.66 8.94 3 12 C2.34 12 1.68 12 1 12 C0.63896464 10.18885568 0.28634496 8.37603177 -0.0625 6.5625 C-0.25972656 5.55316406 -0.45695312 4.54382812 -0.66015625 3.50390625 C-0.77230469 2.67761719 -0.88445312 1.85132813 -1 1 C-0.67 0.67 -0.34 0.34 0 0 Z " fill="#F2EEEA" transform="translate(116,49)"/>
<path d="M0 0 C0.33 0.66 0.66 1.32 1 2 C-1.43802686 7.15468536 -5.81717056 14.40858528 -11 17 C-10.52531987 12.72787882 -7.92614175 10.92614175 -5 8 C-5 7.01 -5 6.02 -5 5 C-2.5 2.3125 -2.5 2.3125 0 0 Z " fill="#FAF4E8" transform="translate(148,91)"/>
<path d="M0 0 C1.98 0 3.96 0 6 0 C5.67 2.64 5.34 5.28 5 8 C3.35 8 1.7 8 0 8 C0 5.36 0 2.72 0 0 Z " fill="#A07266" transform="translate(28,53)"/>
<path d="M0 0 C0.99 0 1.98 0 3 0 C3 2.31 3 4.62 3 7 C0.69 6.67 -1.62 6.34 -4 6 C-3.67 4.68 -3.34 3.36 -3 2 C-2.01 2.33 -1.02 2.66 0 3 C0 2.01 0 1.02 0 0 Z " fill="#556C89" transform="translate(26,38)"/>
<path d="M0 0 C0.12375 0.94875 0.2475 1.8975 0.375 2.875 C0.71687177 6.08667191 0.71687177 6.08667191 3 8 C0.69 7.67 -1.62 7.34 -4 7 C-4.33 5.35 -4.66 3.7 -5 2 C-2 0 -2 0 0 0 Z " fill="#5E6B83" transform="translate(38,69)"/>
<path d="M0 0 C1.32 0 2.64 0 4 0 C4.66 5.28 5.32 10.56 6 16 C5.34 16 4.68 16 4 16 C3.87625 15.360625 3.7525 14.72125 3.625 14.0625 C3.41875 13.381875 3.2125 12.70125 3 12 C2.34 11.67 1.68 11.34 1 11 C1.66 11 2.32 11 3 11 C2.53199289 6.94393835 2.12046792 3.53411321 0 0 Z " fill="#657087" transform="translate(95,97)"/>
<path d="M0 0 C-0.32552083 2.01822917 -0.65104167 4.03645833 -0.9765625 6.0546875 C-0.98429687 6.69664063 -0.99203125 7.33859375 -1 8 C-0.34 8.66 0.32 9.32 1 10 C-0.98 10 -2.96 10 -5 10 C-4.125 4.125 -4.125 4.125 -3 3 C-3.66 2.34 -4.32 1.68 -5 1 C-3 0 -3 0 0 0 Z " fill="#787987" transform="translate(109,64)"/>
<path d="M0 0 C1.32 0.33 2.64 0.66 4 1 C2.73775586 3.52448827 1.49988984 3.82817664 -1 5 C-2.96822886 6.96822886 -2.66248381 10.34808709 -3 13 C-3.66 12.67 -4.32 12.34 -5 12 C-5.35338623 9.03155565 -5.5417682 6.84401782 -3.88671875 4.265625 C-2.64496832 2.79651181 -1.32662082 1.39295186 0 0 Z " fill="#3B5F84" transform="translate(70,112)"/>
<path d="M0 0 C1.32 0 2.64 0 4 0 C3.44854729 5.23880078 2.57077907 9.97350697 1 15 C0.67 15 0.34 15 0 15 C0 10.05 0 5.1 0 0 Z " fill="#F3CB9D" transform="translate(159,83)"/>
<path d="M0 0 C1.98 0.99 3.96 1.98 6 3 C3.63055987 5.61885488 1.16266898 7.41866551 -2 9 C-2.99 8.67 -3.98 8.34 -5 8 C-4.360625 7.608125 -3.72125 7.21625 -3.0625 6.8125 C-0.56221181 4.61527704 -0.35049575 3.24208567 0 0 Z " fill="#E2A887" transform="translate(130,100)"/>
<path d="M0 0 C1.98 0 3.96 0 6 0 C4.03900793 1.96099207 2.58889942 2.80989009 0.125 4 C-0.55304688 4.33 -1.23109375 4.66 -1.9296875 5 C-2.61289063 5.33 -3.29609375 5.66 -4 6 C-5.33425541 6.66481931 -6.66786355 7.33094492 -8 8 C-6.68 5.69 -5.36 3.38 -4 1 C-2.68 1.33 -1.36 1.66 0 2 C0 1.34 0 0.68 0 0 Z " fill="#B2BAC5" transform="translate(92,26)"/>
<path d="M0 0 C2.475 0.495 2.475 0.495 5 1 C5 3.31 5 5.62 5 8 C3.68 8 2.36 8 1 8 C1.020625 7.05125 1.04125 6.1025 1.0625 5.125 C1.22551826 2.09333717 1.22551826 2.09333717 0 0 Z " fill="#5D6C85" transform="translate(39,53)"/>
<path d="M0 0 C1.32 0.33 2.64 0.66 4 1 C4.36923077 8.50769231 4.36923077 8.50769231 2.5 11 C2.005 11.33 1.51 11.66 1 12 C1.33 9.69 1.66 7.38 2 5 C0.68 4.67 -0.64 4.34 -2 4 C-1.34 2.68 -0.68 1.36 0 0 Z " fill="#9BABBA" transform="translate(83,117)"/>
<path d="M0 0 C1.67542976 0.28604898 3.34385343 0.61781233 5 1 C3.47291037 4.43595166 1.40072955 7.11912454 -1 10 C-1 9.34 -1 8.68 -1 8 C-1.66 7.67 -2.32 7.34 -3 7 C-2.01 6.67 -1.02 6.34 0 6 C-0.2784375 4.7934375 -0.2784375 4.7934375 -0.5625 3.5625 C-0.706875 2.716875 -0.85125 1.87125 -1 1 C-0.67 0.67 -0.34 0.34 0 0 Z " fill="#85AAC3" transform="translate(77,35)"/>
<path d="M0 0 C0.33 0 0.66 0 1 0 C1.05422947 1.4370809 1.09289723 2.87475462 1.125 4.3125 C1.14820312 5.11300781 1.17140625 5.91351563 1.1953125 6.73828125 C1 9 1 9 -1 12 C-2.50934217 8.98131566 -2.17510672 6.32702771 -2 3 C-1.34 2.01 -0.68 1.02 0 0 Z " fill="#AC7D6E" transform="translate(125,115)"/>
<path d="M0 0 C1.32 0.33 2.64 0.66 4 1 C4.1875 3.375 4.1875 3.375 4 6 C3.01 6.66 2.02 7.32 1 8 C0.67 5.36 0.34 2.72 0 0 Z " fill="#F18131" transform="translate(139,114)"/>
<path d="M0 0 C0.99 0.99 1.98 1.98 3 3 C2.6875 6.4375 2.6875 6.4375 2 10 C2 11.32 2 12.64 2 14 C1.34 14 0.68 14 0 14 C0 9.38 0 4.76 0 0 Z " fill="#CF7345" transform="translate(131,116)"/>
<path d="M0 0 C0.66 0 1.32 0 2 0 C2 2.64 2 5.28 2 8 C1.01 8 0.02 8 -1 8 C-1.125 2.25 -1.125 2.25 0 0 Z " fill="#896F70" transform="translate(34,53)"/>
<path d="M0 0 C3.375 -0.125 3.375 -0.125 7 0 C7.66 0.66 8.32 1.32 9 2 C8.34 2.66 7.68 3.32 7 4 C5.68 4 4.36 4 3 4 C3 3.34 3 2.68 3 2 C2.01 1.34 1.02 0.68 0 0 Z " fill="#3F759C" transform="translate(72,111)"/>
<path d="M0 0 C0.99 0.33 1.98 0.66 3 1 C-0.42346555 4.14958831 -3.44262737 4.56179109 -8 5 C-7.34 4.67 -6.68 4.34 -6 4 C-6 3.34 -6 2.68 -6 2 C-4.02 2 -2.04 2 0 2 C0 1.34 0 0.68 0 0 Z " fill="#CDB0A4" transform="translate(122,108)"/>
<path d="M0 0 C0.99 0.33 1.98 0.66 3 1 C5.26415094 6.20754717 5.26415094 6.20754717 4 10 C3.34 10 2.68 10 2 10 C2 7.36 2 4.72 2 2 C1.34 2 0.68 2 0 2 C0 1.34 0 0.68 0 0 Z " fill="#CC7044" transform="translate(127,57)"/>
<path d="M0 0 C0.33 0 0.66 0 1 0 C1 2.97 1 5.94 1 9 C0.01 9.33 -0.98 9.66 -2 10 C-1.85950482 8.52031676 -1.71245174 7.04125484 -1.5625 5.5625 C-1.48128906 4.73878906 -1.40007812 3.91507812 -1.31640625 3.06640625 C-1 1 -1 1 0 0 Z " fill="#8E7270" transform="translate(114,63)"/>
<path d="M0 0 C0.78375 0.04125 1.5675 0.0825 2.375 0.125 C1.39933888 1.29459987 0.419375 2.46061177 -0.5625 3.625 C-1.10777344 4.2746875 -1.65304688 4.924375 -2.21484375 5.59375 C-2.68019531 6.0990625 -3.14554688 6.604375 -3.625 7.125 C-3.955 7.125 -4.285 7.125 -4.625 7.125 C-4.75 4.75 -4.75 4.75 -4.625 2.125 C-2.625 0.125 -2.625 0.125 0 0 Z " fill="#4E7B9E" transform="translate(38.625,36.875)"/>
<path d="M0 0 C1.9375 0.75 1.9375 0.75 4 2 C4.75 4.125 4.75 4.125 5 6 C4.01 6 3.02 6 2 6 C0 2.25 0 2.25 0 0 Z " fill="#436182" transform="translate(77,124)"/>
<path d="M0 0 C0.66 0.66 1.32 1.32 2 2 C4.58354218 2.16687448 4.58354218 2.16687448 7 2 C4.60490662 4.89932357 2.68754757 5.50168276 -1 6 C-0.67 4.02 -0.34 2.04 0 0 Z " fill="#BB9C93" transform="translate(117,78)"/>
<path d="M0 0 C0.53625 0.165 1.0725 0.33 1.625 0.5 C4.45886009 1.09660212 7.1119806 1.0656368 10 1 C10 1.33 10 1.66 10 2 C6.37 2.66 2.74 3.32 -1 4 C-0.67 2.68 -0.34 1.36 0 0 Z " fill="#E9EEF1" transform="translate(88,74)"/>
<path d="M0 0 C0.33 0.99 0.66 1.98 1 3 C2.32 3 3.64 3 5 3 C5 3.66 5 4.32 5 5 C5.66 5.33 6.32 5.66 7 6 C5.00045254 6.04254356 2.99958364 6.04080783 1 6 C0 5 0 5 -0.0625 2.4375 C-0.041875 1.633125 -0.02125 0.82875 0 0 Z " fill="#77707C" transform="translate(29,71)"/>
<path d="M0 0 C1.66611905 -0.042721 3.33382885 -0.04063832 5 0 C6 1 6 1 6.0625 4.0625 C6.041875 5.031875 6.02125 6.00125 6 7 C5.34 7 4.68 7 4 7 C3.896875 6.21625 3.79375 5.4325 3.6875 4.625 C3.22404978 1.66954819 3.22404978 1.66954819 0 0 Z " fill="#C5734C" transform="translate(20,53)"/>
<path d="M0 0 C0.99 0 1.98 0 3 0 C3 1.98 3 3.96 3 6 C2.01 6 1.02 6 0 6 C0 4.02 0 2.04 0 0 Z " fill="#477195" transform="translate(26,38)"/>
<path d="M0 0 C1.4540625 0.0309375 1.4540625 0.0309375 2.9375 0.0625 C1.9475 0.5575 1.9475 0.5575 0.9375 1.0625 C0.9375 2.0525 0.9375 3.0425 0.9375 4.0625 C-0.3825 4.0625 -1.7025 4.0625 -3.0625 4.0625 C-3.3925 3.0725 -3.7225 2.0825 -4.0625 1.0625 C-3.0625 0.0625 -3.0625 0.0625 0 0 Z " fill="#667A93" transform="translate(25.0625,36.9375)"/>
<path d="M0 0 C0.99 0.33 1.98 0.66 3 1 C2.01 1.495 2.01 1.495 1 2 C0.34786708 4.02463255 0.34786708 4.02463255 0 6 C-0.66 6 -1.32 6 -2 6 C-1.125 1.125 -1.125 1.125 0 0 Z " fill="#4A7093" transform="translate(82,115)"/>
<path d="M0 0 C0.66 0 1.32 0 2 0 C2 1.65 2 3.3 2 5 C0.68 5 -0.64 5 -2 5 C-1.125 1.125 -1.125 1.125 0 0 Z " fill="#466F93" transform="translate(98,69)"/>
<path d="M0 0 C0.33 0 0.66 0 1 0 C1.33 3.63 1.66 7.26 2 11 C1.01 10.67 0.02 10.34 -1 10 C-0.67 6.7 -0.34 3.4 0 0 Z " fill="#216090" transform="translate(70,59)"/>
<path d="M0 0 C0.66 0 1.32 0 2 0 C1.67 1.98 1.34 3.96 1 6 C1.99 6.33 2.98 6.66 4 7 C2.68 7 1.36 7 0 7 C-0.38133299 5.0085944 -0.71325582 3.00720923 -1 1 C-0.67 0.67 -0.34 0.34 0 0 Z " fill="#3B6D96" transform="translate(48,54)"/>
</svg>
